<?xml version="1.0" encoding="utf-8"?>
<!-- Svg Vector Icons : http://www.sfont.cn -->
<!DOCTYPE svg PUBLIC "-//W3C//DTD SVG 1.1//EN" "http://www.w3.org/Graphics/SVG/1.1/DTD/svg11.dtd">
<svg version="1.1" xmlns="http://www.w3.org/2000/svg" xmlns:xlink="http://www.w3.org/1999/xlink" x="0px" y="0px" viewBox="0 0 1000 1000" enable-background="new 0 0 1000 1000" xml:space="preserve">
<metadata> Svg Vector Icons : http://www.sfont.cn </metadata>
<g><g><path d="M849.3,168.6c-9.2-9-18.6-18.2-27.9-27.6c-9.3-9.3-18.5-18.7-27.6-27.9C729.2,47.2,690.8,10,650.8,10H351c-83.1,0-150.8,67.7-150.8,150.8v271.4h72.5V160.3c0-41.6,33.8-75.4,75.4-75.4l276.2-0.2c27.2,6.9,26.8,40.3,26.8,73.8v114.8c0,20.8,16.9,37.7,37.7,37.7h113.1c37.6,0,75.4,0.2,75.4,37.7v490.5c0,41.6-33.8,75.4-75.4,75.4H348.1c-41.6,0-75.4-33.8-75.4-75.4V718.6h-73.4v120.6c0,83.1,67.7,150.8,150.8,150.8h451.5c83.1,0,150.8-67.7,150.8-150.8V311.5C952.3,271.5,915.1,233.1,849.3,168.6z"/><g><path d="M189.7,508.9c-5.4,0-9.1,0.2-11.7,0.6V563c2.3,0.3,5,0.4,8.6,0.4c19.9,0,31.4-10.5,31.4-28.8C218,513.4,202.6,508.9,189.7,508.9z"/><path d="M763.8,424.6H85.4c-20.8,0-37.7,16.9-37.7,37.7v226.2c0,20.8,16.9,37.7,37.7,37.7h678.5c20.8,0,37.7-16.9,37.7-37.7V462.3C801.5,441.5,784.6,424.6,763.8,424.6z M253.7,588.3c-15.5,16.1-38.6,24.5-66.8,24.5c-3.3,0-6.2-0.2-8.8-0.3v70.4c0,3.4-2.6,6-6,6H129c-3.4,0-6-2.7-6-6V470.3c0-2.8,2.1-5.3,4.9-5.8c16-3,36.1-4.6,60-4.6c28.1,0,48.7,6.1,62.8,18.8c14.3,12.3,22.6,32.2,22.6,54.3C273.1,555.9,266.2,575.6,253.7,588.3z M482.7,682.8c0,3.4-2.7,6-6,6H431c-2.3,0-4.4-1.4-5.4-3.4l-41.1-83.1c-6.3-12.8-14.4-29.6-21.9-47.2c0.5,18.8,0.8,39.4,0.8,62.8v64.9c0,3.4-2.7,6-6,6h-40c-3.3,0-6-2.7-6-6V467.5c0-3.4,2.7-6,6-6h50.8c2.3,0,4.3,1.2,5.4,3.3l40,78.9c6,11.9,12.2,25.5,18.1,39.9c-0.6-16-0.9-33.5-0.9-53.5v-62.6c0-3.4,2.6-6,6-6h40c3.3,0,6,2.6,6,6L482.7,682.8L482.7,682.8L482.7,682.8z M727.1,672.9c0,2.5-1.5,4.7-3.9,5.6c-15.9,6.1-41.7,12.5-66.5,12.5c-36.2,0-63.1-10.1-82.5-30.7c-18.5-20.1-28.8-49.5-28.8-82.7c0.3-72,45.8-118.5,115.9-118.5c25.6,0,45.8,5.6,56.1,10.9c2.4,1.2,3.7,4,3.2,6.7l-9.2,39.3c-0.5,1.8-1.6,3.3-3.4,4c-1.7,0.8-3.6,0.8-5.2-0.1c-8.3-4.3-19.7-8.6-41.8-8.6c-36.3,0-57.9,23.7-57.9,63.7c0,39.9,21,64.6,54.8,64.6c6.7,0,11.8-0.6,15.1-1.3v-34.9h-23.7c-3.3,0-6-2.7-6-6v-38.1c0-3.3,2.7-6,6-6H721c3.3,0,6,2.7,6,6L727.1,672.9L727.1,672.9L727.1,672.9z"/></g></g><g></g><g></g><g></g><g></g><g></g><g></g><g></g><g></g><g></g><g></g><g></g><g></g><g></g><g></g><g></g></g>
</svg>